<svg xmlns="http://www.w3.org/2000/svg" xmlns:xlink="http://www.w3.org/1999/xlink" width="289" height="177" viewBox="0 0 289 177">
  <defs>
    <clipPath id="clip-path">
      <rect id="Rectangle_295799" data-name="Rectangle 295799" width="289" height="177" transform="translate(22296 6485)" fill="none" stroke="#707070" stroke-width="1"/>
    </clipPath>
  </defs>
  <g id="_6" data-name="6" transform="translate(-22296 -6485)" clip-path="url(#clip-path)">
    <g id="Group_158259" data-name="Group 158259" transform="translate(23600.131 3854.87)">
      <g id="Group_157283" data-name="Group 157283" transform="translate(-1207.857 2632.727)">
        <rect id="Rectangle_295568" data-name="Rectangle 295568" width="45.419" height="165.181" rx="1.632" transform="translate(0 5.572)" fill="#161d31"/>
        <path id="Path_266333" data-name="Path 266333" d="M-1207.857,2682.217v-42.873a4.669,4.669,0,0,1,4.668-4.67h36.081a4.671,4.671,0,0,1,4.671,4.67v42.873Z" transform="translate(1207.858 -2629.103)" fill="#de9905"/>
        <rect id="Rectangle_295569" data-name="Rectangle 295569" width="14.644" height="5.571" transform="translate(15.387 0.001)" fill="#78540c"/>
        <rect id="Rectangle_295570" data-name="Rectangle 295570" width="5.2" height="89.877" transform="translate(28.387 54.983)" fill="#b9272d"/>
        <rect id="Rectangle_295571" data-name="Rectangle 295571" width="12.204" height="89.877" transform="translate(14.698 54.983)" fill="#415da6"/>
        <path id="Path_266334" data-name="Path 266334" d="M-1184.859,2647.929a9.123,9.123,0,0,1-9.126,9.126,9.125,9.125,0,0,1-9.126-9.126,9.127,9.127,0,0,1,9.126-9.126A9.125,9.125,0,0,1-1184.859,2647.929Z" transform="translate(1216.693 -2621.415)" fill="#161d31"/>
        <g id="Group_157280" data-name="Group 157280" transform="translate(15.365 18.942)">
          <path id="Path_266335" data-name="Path 266335" d="M-1194.232,2639.346v6.691h6.433v1.708h-6.433v6.745h-1.823v-6.745h-6.434v-1.708h6.434v-6.691Z" transform="translate(1202.488 -2639.346)" fill="#fff"/>
        </g>
        <g id="Group_157282" data-name="Group 157282" transform="translate(14.437 147.937)">
          <circle id="Ellipse_6349" data-name="Ellipse 6349" cx="9.126" cy="9.126" r="9.126" fill="#415da6"/>
          <g id="Group_157281" data-name="Group 157281" transform="translate(8.271 1.888)">
            <path id="Path_266336" data-name="Path 266336" d="M-1199.922,2685.081h1.709v14.689h-1.709Z" transform="translate(1199.922 -2685.081)" fill="#fff"/>
          </g>
        </g>
        <path id="Path_266337" data-name="Path 266337" d="M-1185.149,2632.727h-7.32v5.572h-10.72a4.667,4.667,0,0,0-4.668,4.67V2798.81a4.668,4.668,0,0,0,4.668,4.67h18.9Z" transform="translate(1207.858 -2632.727)" fill="#040506" opacity="0.2"/>
        <path id="Path_266338" data-name="Path 266338" d="M-1194.628,2793.648h-.06V2636.49h.06a6.137,6.137,0,0,1,6.139,6.138V2787.51A6.139,6.139,0,0,1-1194.628,2793.648Z" transform="translate(1232.375 -2625.724)" fill="#fff" opacity="0.2"/>
        <path id="Path_266339" data-name="Path 266339" d="M-1190.3,2636.386c1.059,1.233,1.388,2.687.738,3.242s-2.035.008-3.09-1.225-1.388-2.684-.739-3.242S-1191.352,2635.151-1190.3,2636.386Z" transform="translate(1234.179 -2628.604)" fill="#fff"/>
        <path id="Path_266340" data-name="Path 266340" d="M-1191.529,2637.425c.564.656.738,1.428.392,1.726s-1.082.005-1.646-.653-.739-1.427-.392-1.725S-1192.093,2636.767-1191.529,2637.425Z" transform="translate(1234.862 -2625.414)" fill="#fff"/>
      </g>
      <g id="Group_157287" data-name="Group 157287" transform="translate(-1157.239 2632.727)">
        <rect id="Rectangle_295572" data-name="Rectangle 295572" width="45.419" height="165.181" rx="1.632" transform="translate(0 5.572)" fill="#de9905"/>
        <path id="Path_266341" data-name="Path 266341" d="M-1190.169,2682.217v-42.873a4.669,4.669,0,0,1,4.667-4.67h36.081a4.672,4.672,0,0,1,4.671,4.67v42.873Z" transform="translate(1190.17 -2629.103)" fill="#d72931"/>
        <rect id="Rectangle_295573" data-name="Rectangle 295573" width="14.644" height="5.571" transform="translate(15.387 0.001)" fill="#811c20"/>
        <rect id="Rectangle_295574" data-name="Rectangle 295574" width="5.2" height="89.877" transform="translate(28.387 54.983)" fill="#fff"/>
        <rect id="Rectangle_295575" data-name="Rectangle 295575" width="20.006" height="84.319" rx="3.46" transform="translate(6.048 60.541)" fill="#d85010"/>
        <circle id="Ellipse_6350" data-name="Ellipse 6350" cx="9.126" cy="9.126" r="9.126" transform="translate(13.583 17.389)" fill="#de9905"/>
        <g id="Group_157284" data-name="Group 157284" transform="translate(15.363 18.942)">
          <path id="Path_266342" data-name="Path 266342" d="M-1176.542,2639.346v6.691h6.434v1.708h-6.434v6.745h-1.823v-6.745h-6.436v-1.708h6.436v-6.691Z" transform="translate(1184.801 -2639.346)" fill="#040506"/>
        </g>
        <g id="Group_157286" data-name="Group 157286" transform="translate(14.437 147.937)">
          <circle id="Ellipse_6351" data-name="Ellipse 6351" cx="9.126" cy="9.126" r="9.126" fill="#d72931"/>
          <g id="Group_157285" data-name="Group 157285" transform="translate(8.272 1.888)">
            <path id="Path_266343" data-name="Path 266343" d="M-1182.234,2685.081h1.709v14.689h-1.709Z" transform="translate(1182.234 -2685.081)" fill="#fff"/>
          </g>
        </g>
        <path id="Path_266344" data-name="Path 266344" d="M-1167.461,2632.727h-7.32v5.572h-10.72a4.667,4.667,0,0,0-4.667,4.67V2798.81a4.667,4.667,0,0,0,4.667,4.67h18.9Z" transform="translate(1190.17 -2632.727)" fill="#040506" opacity="0.2"/>
        <path id="Path_266345" data-name="Path 266345" d="M-1177.11,2793.648h-.063V2636.49h.063a6.137,6.137,0,0,1,6.139,6.138V2787.51A6.139,6.139,0,0,1-1177.11,2793.648Z" transform="translate(1214.366 -2625.724)" fill="#fff" opacity="0.2"/>
        <path id="Path_266346" data-name="Path 266346" d="M-1172.779,2636.495c1.056,1.234,1.388,2.684.739,3.242s-2.035.008-3.094-1.224-1.388-2.687-.736-3.242S-1173.838,2635.261-1172.779,2636.495Z" transform="translate(1216.17 -2628.399)" fill="#fff"/>
      </g>
    </g>
  </g>
</svg>
